<svg xmlns="http://www.w3.org/2000/svg" version="1.1" xmlns:xlink="http://www.w3.org/1999/xlink" xmlns:svgjs="http://svgjs.dev/svgjs" width="1500" height="1500" viewBox="0 0 1500 1500"><rect width="1500" height="1500" fill="#333366"></rect><g transform="matrix(0.6666666666666666,0,0,0.6666666666666666,249.39393939393938,438.5856950067477)"><svg viewBox="0 0 396 247" data-background-color="#333366" preserveAspectRatio="xMidYMid meet" height="935" width="1500" xmlns="http://www.w3.org/2000/svg" xmlns:xlink="http://www.w3.org/1999/xlink"><g id="tight-bounds" transform="matrix(1,0,0,1,0.2400000000000091,-0.09999999999999432)"><svg viewBox="0 0 395.52 247.2" height="247.2" width="395.52"><g><svg></svg></g><g><svg viewBox="0 0 395.52 247.2" height="247.2" width="395.52"><mask id="aa2a3384-3f81-4a5f-93ff-df04d2620853"><rect width="640" height="400" fill="white"></rect><g transform="matrix(1,0,0,1,131.87322580645161,37.08)"><svg viewBox="0 0 131.77354838709675 173.04" height="173.04" width="131.77354838709675"><g><svg viewBox="0 0 131.77354838709675 173.04" height="173.04" width="131.77354838709675"><g><svg viewBox="0 0 131.77354838709675 173.04" height="173.04" width="131.77354838709675"><g><svg viewBox="0 0 131.77354838709675 173.04" height="173.04" width="131.77354838709675"><g id="SvgjsG1026"><svg viewBox="0 0 131.77354838709675 173.04" height="173.04" width="131.77354838709675" id="SvgjsSvg1025"><g><svg viewBox="0 0 131.77354838709675 173.04" height="173.04" width="131.77354838709675"><g transform="matrix(1,0,0,1,0,0)"><svg width="131.77354838709675" viewBox="-2.4 -40.4 34.05 44.4" height="173.04" data-palette-color="#ffff33"><path d="M1.6-36.4L7-36.4 15.45-22.25 23.3-36.4 27.65-36.4 17.2-18 17.2 0 12.45 0 12.45-18 1.6-36.4Z" opacity="1" transform="matrix(1,0,0,1,0,0)" fill="black" class="wordmark-text-0" id="SvgjsPath1024" stroke-width="7" stroke="black" stroke-linejoin="round"></path></svg></g></svg></g></svg></g></svg></g></svg></g></svg></g></svg></g></mask><g transform="matrix(1,0,0,1,131.87322580645161,37.08)"><svg viewBox="0 0 131.77354838709675 173.04" height="173.04" width="131.77354838709675"><g><svg viewBox="0 0 131.77354838709675 173.04" height="173.04" width="131.77354838709675"><g><svg viewBox="0 0 131.77354838709675 173.04" height="173.04" width="131.77354838709675"><g><svg viewBox="0 0 131.77354838709675 173.04" height="173.04" width="131.77354838709675"><g id="textblocktransform"><svg viewBox="0 0 131.77354838709675 173.04" height="173.04" width="131.77354838709675" id="textblock"><g><svg viewBox="0 0 131.77354838709675 173.04" height="173.04" width="131.77354838709675"><g transform="matrix(1,0,0,1,0,0)"><svg width="131.77354838709675" viewBox="-2.4 -40.4 34.05 44.4" height="173.04" data-palette-color="#ffff33"><path d="M1.6-36.4L7-36.4 15.45-22.25 23.3-36.4 27.65-36.4 17.2-18 17.2 0 12.45 0 12.45-18 1.6-36.4Z" opacity="1" transform="matrix(1,0,0,1,0,0)" fill="#ffff33" class="wordmark-text-0" data-fill-palette-color="primary" id="text-0"></path></svg></g></svg></g></svg></g></svg></g></svg></g></svg></g></svg></g><g mask="url(#aa2a3384-3f81-4a5f-93ff-df04d2620853)"><g transform="matrix(3.3459328903019796, 0, 0, 3.3459328903019796, 47.30008978890058, 1)"><svg xmlns="http://www.w3.org/2000/svg" xmlns:xlink="http://www.w3.org/1999/xlink" version="1.1" x="0" y="0" viewBox="4.897 13.312999999999999 89.93599999999999 73.283" enable-background="new 0 0 100 100" xml:space="preserve" height="73.283" width="89.93599999999999" class="icon-none" data-fill-palette-color="accent" id="none"><g fill="#ffffff" data-fill-palette-color="accent"><circle cx="59.786" cy="36.004" r="17" fill="#ffffff" data-fill-palette-color="accent"></circle><circle cx="82.859" cy="44.025" r="6.5" fill="#ffffff" data-fill-palette-color="accent"></circle><circle cx="35.58" cy="43.058" r="7.2" fill="#ffffff" data-fill-palette-color="accent"></circle><circle cx="24.303" cy="35.744" r="5.7" fill="#ffffff" data-fill-palette-color="accent"></circle><circle cx="21.142" cy="25.033" r="5.0" fill="#ffffff" data-fill-palette-color="accent"></circle><circle cx="14.012" cy="18.552" r="4.1" fill="#ffffff" data-fill-palette-color="accent"></circle><circle cx="21.164" cy="16.384" r="3.1" fill="#ffffff" data-fill-palette-color="accent"></circle><circle cx="17.389" cy="14.329" r="0.97" fill="#ffffff" data-fill-palette-color="accent"></circle><circle cx="24.11" cy="19.613" r="0.85" fill="#ffffff" data-fill-palette-color="accent"></circle><circle cx="26.139" cy="28.969" r="1.0" fill="#ffffff" data-fill-palette-color="accent"></circle><circle cx="39.949" cy="34.252" r="2.2" fill="#ffffff" data-fill-palette-color="accent"></circle><circle cx="44.038" cy="52.167" r="4.8" fill="#ffffff" data-fill-palette-color="accent"></circle><circle cx="80.552" cy="34.349" r="3.1" fill="#ffffff" data-fill-palette-color="accent"></circle><circle cx="76.399" cy="52.487" r="3.8" fill="#ffffff" data-fill-palette-color="accent"></circle><circle cx="84.598" cy="54.936" r="4.3" fill="#ffffff" data-fill-palette-color="accent"></circle><circle cx="31.22" cy="35.86" r="0.90" fill="#ffffff" data-fill-palette-color="accent"></circle><circle cx="41.588" cy="31.13" r="1.0" fill="#ffffff" data-fill-palette-color="accent"></circle><circle cx="77.907" cy="30.57" r="1.2" fill="#ffffff" data-fill-palette-color="accent"></circle><circle cx="78.1" cy="37.978" r="0.76" fill="#ffffff" data-fill-palette-color="accent"></circle><circle cx="76.395" cy="28.77" r="0.61" fill="#ffffff" data-fill-palette-color="accent"></circle><circle cx="84.493" cy="33.324" r="0.61" fill="#ffffff" data-fill-palette-color="accent"></circle><circle cx="77.391" cy="32.328" r="0.38" fill="#ffffff" data-fill-palette-color="accent"></circle><circle cx="77.679" cy="36.693" r="0.29" fill="#ffffff" data-fill-palette-color="accent"></circle><circle cx="79.382" cy="37.848" r="0.29" fill="#ffffff" data-fill-palette-color="accent"></circle><circle cx="83.403" cy="36.929" r="0.34" fill="#ffffff" data-fill-palette-color="accent"></circle><circle cx="77.413" cy="39.263" r="0.29" fill="#ffffff" data-fill-palette-color="accent"></circle><circle cx="75.896" cy="43.892" r="0.29" fill="#ffffff" data-fill-palette-color="accent"></circle><circle cx="77.009" cy="48.129" r="0.36" fill="#ffffff" data-fill-palette-color="accent"></circle><circle cx="79.626" cy="55.766" r="0.54" fill="#ffffff" data-fill-palette-color="accent"></circle><circle cx="74.492" cy="61.674" r="0.64" fill="#ffffff" data-fill-palette-color="accent"></circle><circle cx="73.265" cy="81.081" r="0.45" fill="#ffffff" data-fill-palette-color="accent"></circle><circle cx="94.192" cy="84.322" r="0.63" fill="#ffffff" data-fill-palette-color="accent"></circle><circle cx="93.977" cy="65.555" r="0.62" fill="#ffffff" data-fill-palette-color="accent"></circle><circle cx="89.155" cy="63.335" r="0.48" fill="#ffffff" data-fill-palette-color="accent"></circle><circle cx="91.949" cy="61.353" r="0.48" fill="#ffffff" data-fill-palette-color="accent"></circle><circle cx="87.822" cy="85.577" r="0.63" fill="#ffffff" data-fill-palette-color="accent"></circle><circle cx="94.407" cy="85.616" r="0.43" fill="#ffffff" data-fill-palette-color="accent"></circle><circle cx="70.757" cy="79.538" r="0.38" fill="#ffffff" data-fill-palette-color="accent"></circle><circle cx="68.884" cy="84.164" r="0.38" fill="#ffffff" data-fill-palette-color="accent"></circle><circle cx="79.09" cy="65.29" r="0.64" fill="#ffffff" data-fill-palette-color="accent"></circle><circle cx="67.545" cy="83.205" r="0.96" fill="#ffffff" data-fill-palette-color="accent"></circle><circle cx="89.982" cy="85.19" r="1.4" fill="#ffffff" data-fill-palette-color="accent"></circle><circle cx="92.656" cy="85.431" r="1.1" fill="#ffffff" data-fill-palette-color="accent"></circle><circle cx="73.816" cy="56.469" r="0.66" fill="#ffffff" data-fill-palette-color="accent"></circle><circle cx="86.147" cy="50.253" r="0.36" fill="#ffffff" data-fill-palette-color="accent"></circle><circle cx="88.641" cy="52.027" r="0.36" fill="#ffffff" data-fill-palette-color="accent"></circle><circle cx="89.011" cy="57.475" r="0.45" fill="#ffffff" data-fill-palette-color="accent"></circle><circle cx="88.777" cy="48.46" r="0.50" fill="#ffffff" data-fill-palette-color="accent"></circle><circle cx="85.875" cy="60.07" r="0.59" fill="#ffffff" data-fill-palette-color="accent"></circle><circle cx="72.661" cy="50.202" r="0.36" fill="#ffffff" data-fill-palette-color="accent"></circle><circle cx="75.609" cy="44.958" r="0.59" fill="#ffffff" data-fill-palette-color="accent"></circle><circle cx="80.871" cy="51.077" r="0.59" fill="#ffffff" data-fill-palette-color="accent"></circle><circle cx="78.55" cy="56.67" r="0.71" fill="#ffffff" data-fill-palette-color="accent"></circle><circle cx="87.785" cy="37.984" r="1.1" fill="#ffffff" data-fill-palette-color="accent"></circle><circle cx="89.324" cy="39.886" r="0.91" fill="#ffffff" data-fill-palette-color="accent"></circle><circle cx="90.394" cy="41.868" r="0.91" fill="#ffffff" data-fill-palette-color="accent"></circle><circle cx="91.171" cy="43.892" r="0.78" fill="#ffffff" data-fill-palette-color="accent"></circle><circle cx="91.43" cy="45.566" r="0.60" fill="#ffffff" data-fill-palette-color="accent"></circle><circle cx="91.556" cy="46.982" r="0.60" fill="#ffffff" data-fill-palette-color="accent"></circle><circle cx="91.556" cy="48.46" r="0.60" fill="#ffffff" data-fill-palette-color="accent"></circle><circle cx="91.949" cy="58.543" r="0.71" fill="#ffffff" data-fill-palette-color="accent"></circle><circle cx="91.556" cy="49.893" r="0.60" fill="#ffffff" data-fill-palette-color="accent"></circle><circle cx="91.556" cy="51.537" r="0.73" fill="#ffffff" data-fill-palette-color="accent"></circle><circle cx="91.556" cy="53.456" r="0.98" fill="#ffffff" data-fill-palette-color="accent"></circle><circle cx="91.556" cy="56.114" r="1.5" fill="#ffffff" data-fill-palette-color="accent"></circle><circle cx="85.428" cy="35.831" r="1.7" fill="#ffffff" data-fill-palette-color="accent"></circle><circle cx="75.231" cy="47.161" r="1.4" fill="#ffffff" data-fill-palette-color="accent"></circle><circle cx="76.14" cy="58.753" r="2.3" fill="#ffffff" data-fill-palette-color="accent"></circle><circle cx="89.104" cy="60.388" r="2.3" fill="#ffffff" data-fill-palette-color="accent"></circle><circle cx="91.744" cy="63.939" r="1.9" fill="#ffffff" data-fill-palette-color="accent"></circle><circle cx="92.741" cy="67.76" r="1.6" fill="#ffffff" data-fill-palette-color="accent"></circle><circle cx="92.741" cy="71.393" r="1.6" fill="#ffffff" data-fill-palette-color="accent"></circle><circle cx="92.792" cy="74.949" r="1.5" fill="#ffffff" data-fill-palette-color="accent"></circle><circle cx="92.748" cy="78.464" r="1.6" fill="#ffffff" data-fill-palette-color="accent"></circle><circle cx="92.457" cy="82.324" r="1.8" fill="#ffffff" data-fill-palette-color="accent"></circle><circle cx="76.979" cy="63.238" r="2.1" fill="#ffffff" data-fill-palette-color="accent"></circle><circle cx="75.881" cy="70.446" r="1.4" fill="#ffffff" data-fill-palette-color="accent"></circle><circle cx="74.749" cy="73.224" r="1.4" fill="#ffffff" data-fill-palette-color="accent"></circle><circle cx="73.855" cy="76.149" r="1.4" fill="#ffffff" data-fill-palette-color="accent"></circle><circle cx="72.817" cy="79.021" r="1.5" fill="#ffffff" data-fill-palette-color="accent"></circle><circle cx="70.689" cy="82.246" r="2.1" fill="#ffffff" data-fill-palette-color="accent"></circle><circle cx="77.273" cy="67.308" r="1.7" fill="#ffffff" data-fill-palette-color="accent"></circle><circle cx="87.902" cy="50.253" r="1.2" fill="#ffffff" data-fill-palette-color="accent"></circle><circle cx="73.155" cy="48.764" r="0.86" fill="#ffffff" data-fill-palette-color="accent"></circle><circle cx="71.537" cy="50.014" r="0.62" fill="#ffffff" data-fill-palette-color="accent"></circle><circle cx="22.245" cy="42.438" r="1.1" fill="#ffffff" data-fill-palette-color="accent"></circle><circle cx="28.057" cy="47.416" r="1.3" fill="#ffffff" data-fill-palette-color="accent"></circle><circle cx="50.184" cy="52.242" r="1.1" fill="#ffffff" data-fill-palette-color="accent"></circle><circle cx="49.587" cy="54.728" r="1.1" fill="#ffffff" data-fill-palette-color="accent"></circle><circle cx="48.029" cy="58.007" r="2.0" fill="#ffffff" data-fill-palette-color="accent"></circle><circle cx="48.164" cy="62.086" r="1.8" fill="#ffffff" data-fill-palette-color="accent"></circle><circle cx="48.502" cy="65.747" r="1.5" fill="#ffffff" data-fill-palette-color="accent"></circle><circle cx="48.591" cy="69.129" r="1.4" fill="#ffffff" data-fill-palette-color="accent"></circle><circle cx="48.937" cy="72.299" r="1.4" fill="#ffffff" data-fill-palette-color="accent"></circle><circle cx="49.357" cy="75.153" r="1.2" fill="#ffffff" data-fill-palette-color="accent"></circle><circle cx="49.546" cy="77.77" r="1.2" fill="#ffffff" data-fill-palette-color="accent"></circle><circle cx="48.164" cy="81.487" r="2.1" fill="#ffffff" data-fill-palette-color="accent"></circle><circle cx="42.965" cy="59.486" r="2.3" fill="#ffffff" data-fill-palette-color="accent"></circle><circle cx="42.682" cy="64.456" r="2.3" fill="#ffffff" data-fill-palette-color="accent"></circle><circle cx="41.946" cy="68.986" r="1.9" fill="#ffffff" data-fill-palette-color="accent"></circle><circle cx="41.117" cy="72.949" r="1.6" fill="#ffffff" data-fill-palette-color="accent"></circle><circle cx="40.863" cy="76.187" r="1.3" fill="#ffffff" data-fill-palette-color="accent"></circle><circle cx="40.388" cy="78.848" r="1.1" fill="#ffffff" data-fill-palette-color="accent"></circle><circle cx="35.905" cy="83.787" r="1.3" fill="#ffffff" data-fill-palette-color="accent"></circle><circle cx="39.311" cy="82.159" r="2.1" fill="#ffffff" data-fill-palette-color="accent"></circle><circle cx="43.901" cy="46.014" r="1.1" fill="#ffffff" data-fill-palette-color="accent"></circle><circle cx="18.494" cy="31.098" r="1.4" fill="#ffffff" data-fill-palette-color="accent"></circle><circle cx="25.586" cy="44.215" r="2.5" fill="#ffffff" data-fill-palette-color="accent"></circle><circle cx="8.379" cy="17.935" r="1.2" fill="#ffffff" data-fill-palette-color="accent"></circle><circle cx="6.121" cy="19.304" r="1.2" fill="#ffffff" data-fill-palette-color="accent"></circle><circle cx="8.788" cy="20.411" r="1.1" fill="#ffffff" data-fill-palette-color="accent"></circle><circle cx="7.052" cy="21.225" r="0.53" fill="#ffffff" data-fill-palette-color="accent"></circle><circle cx="18.894" cy="19.613" r="0.53" fill="#ffffff" data-fill-palette-color="accent"></circle><circle cx="24.953" cy="15.589" r="0.63" fill="#ffffff" data-fill-palette-color="accent"></circle><circle cx="25.813" cy="14.993" r="0.28" fill="#ffffff" data-fill-palette-color="accent"></circle><circle cx="15.632" cy="23.23" r="0.53" fill="#ffffff" data-fill-palette-color="accent"></circle><circle cx="17.2" cy="29.317" r="0.53" fill="#ffffff" data-fill-palette-color="accent"></circle><circle cx="18.261" cy="33.375" r="0.63" fill="#ffffff" data-fill-palette-color="accent"></circle><circle cx="20.527" cy="30.567" r="0.43" fill="#ffffff" data-fill-palette-color="accent"></circle><circle cx="24.594" cy="29.384" r="0.36" fill="#ffffff" data-fill-palette-color="accent"></circle><circle cx="26.348" cy="27.347" r="0.45" fill="#ffffff" data-fill-palette-color="accent"></circle><circle cx="27.09" cy="30.203" r="0.35" fill="#ffffff" data-fill-palette-color="accent"></circle><circle cx="30.487" cy="37.114" r="0.35" fill="#ffffff" data-fill-palette-color="accent"></circle><circle cx="20.743" cy="41.29" r="0.57" fill="#ffffff" data-fill-palette-color="accent"></circle><circle cx="27.628" cy="41.462" r="0.65" fill="#ffffff" data-fill-palette-color="accent"></circle><circle cx="26.12" cy="47.31" r="0.49" fill="#ffffff" data-fill-palette-color="accent"></circle><circle cx="29.835" cy="48.7" r="0.49" fill="#ffffff" data-fill-palette-color="accent"></circle><circle cx="38.793" cy="50.489" r="0.49" fill="#ffffff" data-fill-palette-color="accent"></circle><circle cx="40.771" cy="56.918" r="0.64" fill="#ffffff" data-fill-palette-color="accent"></circle><circle cx="32.657" cy="35.815" r="0.35" fill="#ffffff" data-fill-palette-color="accent"></circle><circle cx="41.911" cy="38.404" r="0.35" fill="#ffffff" data-fill-palette-color="accent"></circle><circle cx="42.422" cy="46.816" r="0.35" fill="#ffffff" data-fill-palette-color="accent"></circle><circle cx="45.395" cy="46.816" r="0.35" fill="#ffffff" data-fill-palette-color="accent"></circle><circle cx="49.203" cy="50.668" r="0.41" fill="#ffffff" data-fill-palette-color="accent"></circle><circle cx="45.308" cy="57.562" r="0.41" fill="#ffffff" data-fill-palette-color="accent"></circle><circle cx="44.611" cy="62.112" r="0.41" fill="#ffffff" data-fill-palette-color="accent"></circle><circle cx="46.478" cy="60.278" r="0.41" fill="#ffffff" data-fill-palette-color="accent"></circle><circle cx="49.618" cy="59.973" r="0.41" fill="#ffffff" data-fill-palette-color="accent"></circle><circle cx="49.783" cy="63.895" r="0.41" fill="#ffffff" data-fill-palette-color="accent"></circle><circle cx="49.783" cy="67.532" r="0.41" fill="#ffffff" data-fill-palette-color="accent"></circle><circle cx="49.972" cy="70.52" r="0.41" fill="#ffffff" data-fill-palette-color="accent"></circle><circle cx="47.547" cy="70.908" r="0.41" fill="#ffffff" data-fill-palette-color="accent"></circle><circle cx="47.395" cy="67.532" r="0.41" fill="#ffffff" data-fill-palette-color="accent"></circle><circle cx="46.98" cy="64.225" r="0.41" fill="#ffffff" data-fill-palette-color="accent"></circle><circle cx="40.863" cy="61.829" r="0.41" fill="#ffffff" data-fill-palette-color="accent"></circle><circle cx="40.393" cy="66.649" r="0.47" fill="#ffffff" data-fill-palette-color="accent"></circle><circle cx="44.038" cy="67.269" r="0.47" fill="#ffffff" data-fill-palette-color="accent"></circle><circle cx="50.274" cy="79.597" r="0.47" fill="#ffffff" data-fill-palette-color="accent"></circle><circle cx="50.739" cy="82.473" r="0.47" fill="#ffffff" data-fill-palette-color="accent"></circle><circle cx="50.672" cy="80.578" r="0.34" fill="#ffffff" data-fill-palette-color="accent"></circle><circle cx="50.895" cy="81.487" r="0.34" fill="#ffffff" data-fill-palette-color="accent"></circle><circle cx="45.495" cy="81.646" r="0.47" fill="#ffffff" data-fill-palette-color="accent"></circle><circle cx="45.726" cy="83.084" r="0.61" fill="#ffffff" data-fill-palette-color="accent"></circle><circle cx="42.626" cy="71.462" r="0.41" fill="#ffffff" data-fill-palette-color="accent"></circle><circle cx="36.649" cy="82.06" r="0.41" fill="#ffffff" data-fill-palette-color="accent"></circle><circle cx="40.338" cy="70.908" r="0.41" fill="#ffffff" data-fill-palette-color="accent"></circle><circle cx="37.797" cy="84.77" r="0.52" fill="#ffffff" data-fill-palette-color="accent"></circle><circle cx="43.545" cy="44.178" r="0.51" fill="#ffffff" data-fill-palette-color="accent"></circle><circle cx="30.487" cy="34.485" r="0.48" fill="#ffffff" data-fill-palette-color="accent"></circle><circle cx="36.854" cy="34.998" r="0.75" fill="#ffffff" data-fill-palette-color="accent"></circle><circle cx="41.426" cy="37.114" r="0.75" fill="#ffffff" data-fill-palette-color="accent"></circle><circle cx="43.493" cy="28.178" r="0.38" fill="#ffffff" data-fill-palette-color="accent"></circle><circle cx="42.634" cy="29.384" r="0.72" fill="#ffffff" data-fill-palette-color="accent"></circle></g></svg></g></g></svg></g><defs></defs></svg><rect width="395.52" height="247.2" fill="none" stroke="none" visibility="hidden"></rect></g></svg></g></svg>